<?xml version="1.0"?>
<svg version="1.1" xmlns="http://www.w3.org/2000/svg" width="400" height="200" style=""><path fill="#2576b0" d="M68.35,90.3l-52.574,0l0,5.917l23.862,0l0,62.177l6.014,0l0-62.177l22.698,0l0-5.917z M96.27048,97.381l36.569,0l0-7.372l-36.569,0q-7.178,0-12.028,5.626q-4.947,5.723-4.947,13.871q0,7.372,4.947,12.804q4.85,5.529,12.028,5.529l9.7,0l9.894,0q4.365,0,7.76,3.686q3.201,3.88,3.201,8.439q0,5.432-3.1525,8.827t-7.8085,3.395l-36.569,0l0,6.014l36.569,0q7.275,0,12.125-5.044t4.85-13.192q0-7.372-4.85-12.804q-4.947-5.432-12.125-5.432l-9.894,0l-9.7,0q-4.462,0-7.663-3.88q-3.298-3.589-3.298-8.342q0-5.432,3.1525-8.7785t7.8085-3.3465z M148.14996,158.297l6.111,0l0-68.191l-6.111,0l0,68.191z M219.81744,90.3l-52.574,0l0,5.917l23.862,0l0,62.177l6.014,0l0-62.177l22.698,0l0-5.917z"/><path fill="#" d=""/></svg>
